<?xml version="1.0" standalone="no"?>
<!DOCTYPE svg PUBLIC "-//W3C//DTD SVG 20010904//EN"
 "http://www.w3.org/TR/2001/REC-SVG-20010904/DTD/svg10.dtd">
<svg version="1.0" xmlns="http://www.w3.org/2000/svg"
 width="40" height="40" viewBox="0 0 7973.000000 6909.000000"
 preserveAspectRatio="xMidYMid meet">

<g transform="translate(0.000000,6909.000000) scale(0.100000,-0.100000)"
fill="#000000" stroke="none">
<path d="M28685 49366 c-77 -20 -8241 -2963 -8320 -3000 -81 -38 -178 -122
-226 -197 -141 -220 -109 -516 75 -701 72 -71 138 -111 236 -142 36 -12 66
-25 68 -29 2 -5 -84 -62 -190 -126 -1270 -773 -2908 -2034 -4485 -3453 -308
-277 -343 -314 -387 -401 -113 -224 -72 -485 105 -658 110 -109 224 -153 418
-165 67 -4 120 -10 119 -13 -2 -4 -91 -90 -198 -192 -1062 -1011 -2452 -2736
-3704 -4598 -190 -283 -219 -332 -241 -418 -20 -76 -19 -225 1 -294 56 -189
204 -337 393 -393 73 -21 195 -20 344 4 687 109 1712 185 2796 206 l355 7 -24
-39 c-13 -21 -63 -97 -110 -169 -295 -444 -922 -1461 -1030 -1671 -110 -215
-77 -468 85 -642 66 -72 133 -117 223 -149 83 -30 208 -40 292 -24 34 7 64 10
66 8 3 -3 -34 -76 -81 -163 -390 -717 -823 -1734 -1218 -2859 -139 -396 -351
-1045 -343 -1052 5 -5 982 218 1206 275 l65 17 24 70 c689 2003 1328 3337
1950 4065 45 52 97 127 116 165 131 262 48 567 -197 725 -125 81 -252 103
-448 77 -63 -9 -116 -14 -119 -12 -14 14 864 1330 895 1342 35 13 950 -45
1529 -98 5026 -456 9973 -2075 14445 -4727 2058 -1221 4092 -2711 5883 -4309
l137 -123 -204 0 c-256 0 -1524 18 -2071 29 -225 5 -411 7 -413 6 -4 -3 106
-109 243 -235 324 -298 646 -533 882 -641 125 -58 274 -107 407 -134 208 -42
347 -48 816 -39 450 10 1260 11 2105 3 451 -3 523 -2 619 13 517 83 870 296
1551 933 605 566 1209 1047 1860 1482 1102 736 2258 1299 3596 1751 165 56
339 126 585 235 571 254 1024 444 1529 644 4421 1750 8434 2371 12025 1862
314 -45 413 -36 583 53 97 50 215 175 265 279 94 195 94 393 0 588 -73 152
-233 287 -398 335 -105 31 -839 123 -1275 160 -915 78 -1984 89 -2935 31
-2865 -175 -5875 -913 -9125 -2237 -500 -204 -1328 -564 -1719 -747 -60 -28
-111 -49 -113 -47 -2 2 123 86 279 187 1744 1128 3475 2065 5138 2779 2246
965 4439 1558 6525 1764 517 52 899 74 1448 86 430 9 444 11 572 74 166 83
292 240 339 422 20 78 21 239 1 322 -49 208 -214 388 -425 463 -61 22 -82 24
-355 27 -657 8 -1546 -53 -2370 -164 -3202 -429 -6549 -1667 -10034 -3712
-1538 -902 -3285 -2086 -4811 -3261 -104 -80 -100 -75 178 224 2879 3098 6219
5702 9317 7265 2758 1391 5179 1898 7090 1484 256 -56 446 -151 730 -364 204
-153 341 -276 606 -540 577 -576 1165 -1309 1872 -2332 240 -347 751 -1127
744 -1135 -1 -1 -54 5 -117 14 -199 26 -324 5 -456 -78 -238 -151 -324 -473
-194 -728 15 -31 70 -105 121 -166 641 -762 1309 -2170 1984 -4176 57 -172
106 -313 108 -315 9 -10 1102 -252 1215 -270 24 -4 42 -3 42 3 0 5 -27 97 -61
204 -515 1651 -1083 3079 -1612 4049 -46 85 -80 156 -76 158 5 2 32 -1 59 -7
351 -75 688 217 667 579 -6 118 -33 187 -145 380 -790 1363 -1833 2878 -2647
3845 -437 520 -933 1020 -1312 1323 -407 326 -793 534 -1162 627 -310 78 -735
142 -1166 177 -208 17 -935 17 -1155 0 -704 -54 -1299 -151 -2005 -328 -3378
-845 -7389 -3286 -11165 -6793 -669 -622 -1524 -1479 -2166 -2171 -855 -923
-1728 -1964 -2423 -2888 -67 -90 -125 -162 -127 -159 -2 2 -20 104 -39 227
-521 3355 -2212 7533 -4975 12291 -1585 2729 -3539 5664 -5594 8404 -650 868
-1159 1519 -1260 1613 -62 58 -167 113 -254 131 -68 14 -183 13 -247 -3z m142
-1473 c1888 -2439 3830 -5257 5435 -7888 2027 -3322 3595 -6474 4543 -9133 53
-147 102 -284 109 -304 8 -21 13 -38 11 -38 -2 0 -63 114 -135 253 -830 1580
-1774 3085 -2808 4477 -2556 3437 -5726 6310 -9372 8490 -1350 807 -2775 1518
-4108 2050 -101 40 -180 76 -175 80 4 4 60 25 123 48 98 34 4421 1591 5020
1808 793 286 1146 413 1151 414 4 0 96 -116 206 -257z m-6505 -3237 c1639
-678 3286 -1558 4858 -2594 2146 -1414 4126 -3107 5875 -5022 2443 -2675 4434
-5796 5920 -9280 125 -293 355 -853 355 -865 0 -3 -35 24 -77 61 -43 36 -226
190 -408 342 -2866 2394 -5996 4331 -9290 5749 -3811 1641 -7872 2607 -11885
2828 -578 32 -758 37 -1510 42 -943 7 -1527 -10 -2262 -65 -126 -10 -228 -16
-228 -14 0 20 583 812 914 1242 882 1146 1744 2103 2451 2722 255 223 461 380
723 552 125 83 173 120 206 163 87 110 126 223 126 363 -1 106 -12 155 -56
248 -51 105 -143 196 -254 251 -78 38 -102 44 -285 72 -190 30 -214 35 -204
42 2 2 78 67 169 143 1715 1455 3209 2509 4335 3061 105 51 193 93 197 93 3 0
152 -60 330 -134z"/>
<path d="M57520 30123 c-1580 -19 -3336 -205 -5100 -539 -401 -76 -1072 -215
-1066 -221 2 -3 91 9 197 26 1672 262 3547 326 5554 190 1804 -122 3705 -399
5923 -865 335 -70 1269 -275 1364 -299 26 -7 27 -5 43 71 57 256 -54 532 -273
678 -85 56 -122 71 -373 145 -1501 445 -3088 706 -4811 791 -230 11 -1068 31
-1193 28 -44 -2 -163 -4 -265 -5z"/>
<path d="M12815 24725 c-233 -51 -414 -212 -492 -437 -35 -99 -42 -245 -19
-352 54 -239 244 -435 482 -496 77 -20 163 -20 11194 -20 10953 0 11118 0
11192 19 241 62 421 242 484 481 22 86 22 235 -1 320 -63 241 -264 435 -501
485 -60 13 -1489 15 -11174 14 -9163 0 -11115 -3 -11165 -14z"/>
<path d="M44570 24724 c-89 -19 -233 -92 -302 -154 -75 -67 -144 -173 -182
-279 -28 -78 -30 -97 -30 -211 0 -109 3 -135 27 -206 72 -216 260 -388 479
-439 59 -13 1222 -15 11210 -13 l11143 3 81 31 c206 80 344 224 410 429 33
100 38 254 11 355 -35 134 -112 255 -222 348 -66 57 -193 119 -280 137 -103
22 -22244 21 -22345 -1z"/>
<path d="M37975 22635 c-38 -8 -112 -35 -164 -61 -155 -77 -267 -204 -329
-376 -24 -65 -27 -87 -27 -208 0 -147 9 -189 67 -305 42 -84 93 -146 211 -254
504 -462 1132 -744 1817 -817 208 -22 555 -14 755 16 480 73 898 232 1292 493
241 159 486 374 566 495 116 177 144 372 82 571 -32 101 -82 181 -162 262 -78
80 -161 131 -266 164 -243 77 -471 19 -682 -175 -181 -167 -307 -254 -500
-346 -594 -282 -1303 -215 -1840 173 -33 24 -111 90 -173 146 -62 56 -141 119
-175 140 -131 80 -321 113 -472 82z"/>
</g>
</svg>
